# Blender v2.79 (sub 0) OBJ File: 'triangle.blend'
# www.blender.org
mtllib triangle.mtl
o Cube_Cube.003
v -1.000000 -1.000000 1.000000
v -1.000000 1.000000 1.000000
v -1.000000 -1.000000 -7.000000
v -1.000000 1.000000 -5.000000
v 1.000000 -1.000000 1.000000
v 1.000000 1.000000 1.000000
v 1.000000 -1.000000 -7.000000
v 1.000000 1.000000 -5.000000
v -1.000000 -1.000000 1.000000
v -1.000000 1.000000 1.000000
v 1.000000 -1.000000 1.000000
v 1.000000 1.000000 1.000000
v -1.000000 -1.000000 1.000000
v -1.000000 9.000000 1.000000
v -1.000000 -1.000000 -1.000000
v -1.000000 9.000000 -1.000000
v 1.000000 -1.000000 1.000000
v 1.000000 9.000000 1.000000
v 1.000000 -1.000000 -1.000000
v 1.000000 9.000000 -1.000000
v -1.000000 7.000000 1.000000
v -1.000000 9.000000 1.000000
v -1.000000 7.000000 -1.000000
v -1.000000 9.000000 -1.000000
v 9.000000 7.000000 1.000000
v 9.000000 9.000000 1.000000
v 9.000000 7.000000 -1.000000
v 9.000000 9.000000 -1.000000
vn -1.0000 0.0000 0.0000
vn 0.0000 0.7071 -0.7071
vn 1.0000 0.0000 0.0000
vn 0.0000 0.0000 1.0000
vn 0.0000 -1.0000 0.0000
vn 0.0000 1.0000 0.0000
vn 0.0000 0.0000 -1.0000
usemtl None
s off
f 1//1 2//1 4//1 3//1
f 3//2 4//2 8//2 7//2
f 7//3 8//3 6//3 5//3
f 5//4 6//4 2//4 1//4
f 3//5 7//5 5//5 1//5
f 8//6 4//6 2//6 6//6
f 11//4 12//4 10//4 9//4
f 13//1 14//1 16//1 15//1
f 15//7 16//7 20//7 19//7
f 19//3 20//3 18//3 17//3
f 17//4 18//4 14//4 13//4
f 15//5 19//5 17//5 13//5
f 20//6 16//6 14//6 18//6
f 21//1 22//1 24//1 23//1
f 23//7 24//7 28//7 27//7
f 27//3 28//3 26//3 25//3
f 25//4 26//4 22//4 21//4
f 23//5 27//5 25//5 21//5
f 28//6 24//6 22//6 26//6
